<svg width="122" height="36" viewBox="0 0 122 36" fill="none" xmlns="http://www.w3.org/2000/svg">
<g clip-path="url(#clip0_1_7)">
<path d="M10.5519 28.4526C9.38421 28.4526 8.15786 28.3895 6.86754 28.2579C5.57721 28.1263 4.35086 27.9632 3.18317 27.7684C2.01548 27.5737 1.0344 27.3947 0.23461 27.2368L0.591849 21.8526C1.43963 21.9316 2.43137 22.0368 3.55641 22.1684C4.68678 22.3 5.81715 22.4105 6.95818 22.5C8.09921 22.5895 9.09628 22.6368 9.94406 22.6368C10.7918 22.6368 11.421 22.5474 11.9169 22.3632C12.4074 22.1789 12.7647 21.9105 12.9939 21.5579C13.2179 21.2053 13.3298 20.7368 13.3298 20.1632C13.3298 19.6895 13.2232 19.3158 13.0099 19.0421C12.7966 18.7684 12.3914 18.5316 11.7942 18.3368C11.1971 18.1421 10.3386 17.9526 9.22425 17.7684C7.4967 17.4789 6.04642 17.1316 4.86273 16.7263C3.67904 16.3211 2.73529 15.8105 2.01548 15.1947C1.301 14.5789 0.783799 13.8 0.463883 12.8579C0.143967 11.9158 -0.0159912 10.7737 -0.0159912 9.43684C-0.0159912 7.18421 0.389236 5.44211 1.19969 4.21053C2.01014 2.97895 3.15651 2.11579 4.64412 1.61579C6.13173 1.11579 7.8966 0.868423 9.93873 0.868423C10.8931 0.868423 11.9755 0.921055 13.1859 1.02632C14.3909 1.13158 15.5746 1.24737 16.7316 1.37895C17.8886 1.51053 18.8857 1.65263 19.7388 1.81053L19.4616 7.31053C18.6671 7.23158 17.7287 7.14737 16.657 7.05263C15.5799 6.96316 14.4975 6.87369 13.4098 6.79474C12.3221 6.71579 11.3677 6.67895 10.5412 6.67895C9.77344 6.67895 9.12828 6.75263 8.61108 6.89474C8.09388 7.03684 7.72065 7.25263 7.49671 7.54211C7.27276 7.83158 7.16079 8.21053 7.16079 8.68421C7.16079 9.21053 7.2781 9.62105 7.51803 9.92105C7.75797 10.2211 8.17386 10.4737 8.77104 10.6684C9.36821 10.8632 10.2267 11.0947 11.341 11.3579C13.0686 11.7263 14.5135 12.1053 15.6812 12.5C16.8489 12.8947 17.782 13.3789 18.4858 13.9526C19.1896 14.5316 19.7015 15.2684 20.0161 16.1737C20.336 17.0789 20.496 18.2368 20.496 19.6526C20.496 21.8 20.1121 23.5211 19.3389 24.8211C18.5711 26.1158 17.4408 27.0474 15.9532 27.6105C14.4655 28.1737 12.6634 28.4579 10.5359 28.4579L10.5519 28.4526Z" fill="#F9FAFB"/>
<path d="M31.3998 28.4526C29.0644 28.4526 27.2035 28.0947 25.8279 27.3737C24.4469 26.6526 23.4605 25.5474 22.8633 24.0526C22.2661 22.5579 21.9676 20.6737 21.9676 18.3947C21.9676 16.1158 22.3195 14.0316 23.0233 12.4579C23.7271 10.8842 24.7935 9.70526 26.2278 8.92105C27.6621 8.13684 29.4803 7.7421 31.6823 7.7421C34.8388 7.7421 37.2222 8.47368 38.8271 9.9421C40.432 11.4105 41.2372 13.7263 41.2372 16.9L40.9173 20.2H28.8511C28.8777 21.2474 29.1177 22.0263 29.5656 22.5368C30.0188 23.0474 30.7972 23.3053 31.917 23.3053C32.7647 23.3053 33.7138 23.2842 34.7642 23.2474C35.8146 23.2105 36.8597 23.1632 37.91 23.1105C38.9604 23.0579 39.8402 23.0053 40.56 22.9526L40.72 27.4737C40.0268 27.6053 39.1524 27.7474 38.0913 27.9053C37.0303 28.0632 35.9052 28.1947 34.7269 28.3C33.5432 28.4053 32.4395 28.4579 31.3998 28.4579V28.4526ZM28.8138 16.2316H34.3856C34.3856 14.8947 34.1724 13.9579 33.7511 13.4211C33.3246 12.8842 32.6368 12.6158 31.6823 12.6158C31.0212 12.6158 30.472 12.7316 30.0508 12.9684C29.6242 13.2053 29.3203 13.5895 29.1337 14.1263C28.9471 14.6632 28.8404 15.3632 28.8138 16.2316Z" fill="#F9FAFB"/>
<path d="M49.2244 28.4526C46.969 28.4526 45.2841 27.9263 44.1697 26.8789C43.0554 25.8316 42.4955 24.2053 42.4955 22.0053C42.4955 20.4316 42.7941 19.2263 43.3913 18.3895C43.9885 17.5526 44.8576 16.9632 45.9986 16.6211C47.1396 16.2789 48.5046 16.0684 50.0989 15.9947L54.1191 15.7211V14.8579C54.1191 14.2053 53.9112 13.7421 53.5006 13.4842C53.0901 13.2211 52.5089 13.0895 51.7677 13.0895C50.9733 13.0895 50.0669 13.1158 49.0591 13.1684C48.0514 13.2211 47.0703 13.2842 46.1106 13.3632C45.1562 13.4421 44.319 13.521 43.6046 13.6L43.4073 8.92105C44.1484 8.73684 45.0335 8.55263 46.0572 8.36842C47.081 8.18421 48.1474 8.03684 49.2617 7.91579C50.3761 7.8 51.4265 7.73684 52.4076 7.73684C54.1831 7.73684 55.7187 7.93158 57.0037 8.32631C58.2887 8.72105 59.2751 9.4 59.9523 10.3684C60.6294 11.3368 60.9653 12.7 60.9653 14.4579V22.7895C61.0453 23.0263 61.2266 23.221 61.5039 23.3789C61.7811 23.5368 62.0797 23.6421 62.3996 23.6947L62.2823 28.1368C61.8558 28.1632 61.4079 28.2 60.928 28.2526C60.4481 28.3053 60.0056 28.3316 59.595 28.3316C59.1845 28.3316 58.8432 28.3158 58.582 28.2947C57.7875 28.2684 57.121 28.1158 56.5932 27.8421C56.06 27.5684 55.6761 27.3 55.4361 27.0368C55.0362 27.2211 54.5084 27.421 53.8419 27.6474C53.1807 27.8684 52.4502 28.0579 51.6504 28.2158C50.856 28.3737 50.0455 28.4526 49.2244 28.4526ZM50.9733 23.6579C51.3732 23.6579 51.7624 23.6105 52.1463 23.521C52.5302 23.4316 52.9035 23.3158 53.2607 23.1895C53.6179 23.0579 53.9059 22.9421 54.1191 22.8368V19.6158L51.2132 19.8895C50.5787 19.9421 50.1042 20.1316 49.8003 20.4579C49.4963 20.7842 49.3417 21.2368 49.3417 21.8158C49.3417 22.3947 49.475 22.8421 49.7416 23.1737C50.0082 23.5 50.4188 23.6632 50.9733 23.6632V23.6579Z" fill="#F9FAFB"/>
<path d="M71.304 28.4526C69.7897 28.4526 68.5633 28.2474 67.6196 27.8421C66.6758 27.4368 65.988 26.7158 65.5508 25.6789C65.1136 24.6421 64.895 23.1947 64.895 21.3368V13.7105H62.9062V8.21053H64.895V3.53684H71.7412V8.21579H76.0387V13.7158H71.7412V19.6895C71.7412 20.4474 71.7785 21.0474 71.8585 21.4789C71.9385 21.9105 72.1091 22.2105 72.3757 22.3842C72.6423 22.5526 73.0368 22.6421 73.57 22.6421C73.7033 22.6421 73.9273 22.6368 74.2472 22.621C74.5671 22.6105 74.8977 22.5947 75.2443 22.5842C75.5908 22.5737 75.8414 22.5632 76.0014 22.5632L76.1187 27.8684C75.6921 27.9474 75.1856 28.0316 74.5884 28.1263C73.9912 28.2158 73.3994 28.2947 72.8182 28.3632C72.2317 28.4263 71.7305 28.4632 71.304 28.4632V28.4526Z" fill="#F9FAFB"/>
<path d="M78.4701 5.85789V0.705261H85.359V5.85263H78.4701V5.85789ZM78.5127 27.9842V8.21579H85.3216V27.9842H78.5127Z" fill="#F9FAFB"/>
<path d="M89.5392 27.9842V13.7158H87.9449V8.21579H89.5392V7.51053C89.5392 5.65263 89.7258 4.17895 90.099 3.08947C90.4723 2 91.1228 1.21579 92.0505 0.73158C92.9783 0.24737 94.2526 0.00526428 95.8735 0.00526428C96.4067 0.00526428 96.9826 0.0315801 97.6064 0.0842116C98.2302 0.136843 98.8274 0.194738 99.3979 0.263159C99.9685 0.33158 100.427 0.389475 100.774 0.442106L100.736 5.47368C100.336 5.47368 99.9311 5.46842 99.5206 5.45263C99.11 5.44211 98.7421 5.43158 98.4275 5.43158C97.921 5.43158 97.5158 5.48947 97.2119 5.61053C96.9079 5.72632 96.6947 5.92632 96.5773 6.2C96.46 6.47368 96.3961 6.86316 96.3961 7.35789V8.22105H100.496V13.7211H96.3961V27.9895H89.5499L89.5392 27.9842Z" fill="#F9FAFB"/>
<path d="M108.622 36L111.171 27.9842H106.036L101.893 8.21579H109.102L111.731 22.3263H112.568L115.154 8.21579H122L116.066 36H108.622Z" fill="#F9FAFB"/>
</g>
<defs>
<clipPath id="clip0_1_7">
<rect width="122" height="36" fill="white"/>
</clipPath>
</defs>
</svg>
